<svg width="140" height="22" viewBox="0 0 140 22" fill="none" xmlns="http://www.w3.org/2000/svg">
<g opacity="0.99">
<path opacity="0.99" d="M111 21.5C109.6 21.5 108.5 20.4 108.5 19V3C108.5 1.6 109.6 0.5 111 0.5H137C138.4 0.5 139.5 1.6 139.5 3V19C139.5 20.4 138.4 21.5 137 21.5H111Z" fill="#F2F2F2"/>
<path opacity="0.99" d="M137 1C138.1 1 139 1.9 139 3V19C139 20.1 138.1 21 137 21H111C109.9 21 109 20.1 109 19V3C109 1.9 109.9 1 111 1H137ZM137 0H111C109.3 0 108 1.3 108 3V19C108 20.7 109.3 22 111 22H137C138.7 22 140 20.7 140 19V3C140 1.3 138.7 0 137 0Z" fill="#D8D8D8"/>
<path opacity="0.99" d="M137 21H117C126.8 19 135.5 16.2 139 13V19C139 20.1 138.1 21 137 21Z" fill="#F16000"/>
<path opacity="0.99" d="M111 10.8H112.3C113.3 10.8 114.1 10.1 114.1 9.10001V9.00001C114.1 8.00001 113.4 7.20001 112.4 7.20001H111V10.8ZM111.8 10.1V7.90001H112.4C113 7.90001 113.4 8.30001 113.4 8.90001V9.00001C113.4 9.60001 113 10 112.5 10.1H111.8ZM114.9 10.8H115.7V7.20001H114.9V10.8ZM117.7 10.9C118.3 11 118.9 10.6 119 9.90001V9.70001C119 9.10001 118.5 8.60001 117.9 8.60001C117.3 8.50001 117.1 8.40001 117.1 8.20001C117.1 8.00001 117.3 7.90001 117.5 7.90001C117.8 7.90001 118.1 8.00001 118.4 8.30001L118.8 7.70001C118.5 7.30001 118 7.20001 117.6 7.20001C117 7.10001 116.4 7.50001 116.4 8.10001V8.20001C116.4 8.90001 116.8 9.10001 117.5 9.30001C118.1 9.50001 118.2 9.60001 118.2 9.80001C118.2 10 118 10.2 117.7 10.1C117.3 10.1 117 9.90001 116.7 9.70001L116.3 10.3C116.6 10.7 117.2 10.9 117.7 10.9ZM121.2 10.9C121.7 10.9 122.3 10.7 122.6 10.3L122.1 9.80001C121.9 10.1 121.5 10.2 121.2 10.2C120.6 10.2 120.2 9.70001 120.2 9.10001C120.2 8.50001 120.6 8.00001 121.2 8.00001C121.5 8.00001 121.9 8.20001 122.1 8.40001L122.6 7.80001C122.3 7.40001 121.8 7.20001 121.2 7.20001C120.2 7.20001 119.4 8.00001 119.4 9.00001V9.10001C119.4 10 120.1 10.8 121.2 10.9C121.2 10.9 121.1 10.9 121.2 10.9ZM128.1 10.8H128.8L130.2 7.20001H129.4L128.5 9.70001L127.6 7.20001H126.8L128.1 10.8ZM130.7 10.8H133.3V10.1H131.4V9.40001H133V8.70001H131.4V7.90001H133.2V7.20001H130.6L130.7 10.8ZM134 10.8H134.8V9.70001H135.4L136.1 10.8H137L136.2 9.50001C136.7 9.30001 137 8.90001 136.9 8.40001C136.9 8.10001 136.8 7.80001 136.6 7.60001C136.3 7.30001 136 7.20001 135.6 7.20001H134V10.8ZM134.8 9.00001V8.00001H135.6C135.9 8.00001 136.1 8.10001 136.2 8.40001V8.50001C136.2 8.80001 136 9.00001 135.7 9.00001H134.8Z" fill="black"/>
<path opacity="0.99" d="M124.7 10.9C125.7 10.9 126.5 10.1 126.5 9.10002V9.00002C126.5 8.00002 125.7 7.20002 124.7 7.10002C123.7 7.00002 122.9 7.90002 122.8 8.90002V9.00002C122.9 10 123.7 10.8 124.7 10.9Z" fill="#F16000"/>
<path opacity="0.99" d="M118.5 13H130.5C130.8 13 131 13.2 131 13.5C131 13.8 130.8 14 130.5 14H118.5C118.2 14 118 13.8 118 13.5C118 13.2 118.2 13 118.5 13Z" fill="#BFBFBF"/>
</g>
<path d="M101 0H75C73.4 0 72 1.3 72 3V19C72 20.7 73.3 22 75 22H101C102.7 22 104 20.7 104 19V3C104 1.3 102.7 0 101 0Z" fill="#22ADE7"/>
<path d="M98.8 11L100.6 8.7L102 7H97.8L97.5 7.4L96.7 8.3L96 7.4L95.7 7H87L86.7 7.6L85.9 9.4L85.1 7.6L84.9 7H81V8.5L80.7 7.6L80.4 7H77.3L77 7.6L74.6 13.5L74 15H77.7L77.9 14.3L78.2 13.5H79.5L79.8 14.3L80 15H84.4V14.5L84.6 15H87.2L87.3 14.9V15H95.5L95.8 14.7L96.7 13.7L97.6 14.7L97.9 15.1H102L100.7 13.4L98.8 11ZM89.9 14H88.3V9.6L86.6 14H85.3L83.4 9.6V14H80.7L80.2 12.5H77.5L77 14H75.5L77.9 8.1H79.7L82 13.7V8.1H84.2L85.9 12L87.6 8.1H89.9V14ZM98.3 14L96.7 12.1L95 14H90.8V8.1H95.2L96.7 10L98.3 8.1H99.9L97.5 11L99.8 14H98.3ZM92.2 9.2V10.5H94.1V11.5H92.2V12.8H94.3L95.8 11L94.5 9.3L92.2 9.2ZM78 11.2H79.7L78.9 9.2L78 11.2Z" fill="white"/>
<path d="M65 0H39C37.4 0 36 1.3 36 3V19C36 20.7 37.3 22 39 22H65C66.7 22 68 20.7 68 19V3C68 1.3 66.7 0 65 0Z" fill="#32326F"/>
<path d="M47.7 17.6C51.3451 17.6 54.3 14.6451 54.3 11C54.3 7.35494 51.3451 4.40002 47.7 4.40002C44.0549 4.40002 41.1 7.35494 41.1 11C41.1 14.6451 44.0549 17.6 47.7 17.6Z" fill="#F22F12"/>
<path d="M56.5 4.5C60.1 4.6 63 7.5 62.9 11.1C62.8 14.7 59.9 17.6 56.3 17.5C52.7 17.4 49.9 14.6 49.9 11C49.9 7.4 52.9 4.5 56.5 4.5Z" fill="#F79F1A"/>
<path d="M49.9 11C49.9 9.10001 50.7 7.40001 52.1 6.20001C54.8 8.50001 55 12.6 52.7 15.2L52.1 15.8C50.7 14.6 49.9 12.9 49.9 11Z" fill="#FF5F01"/>
<path d="M2.58 22C1.136 22 0 20.848 0 19.381V2.619C0 1.152 1.135 0 2.58 0H29.42C30.864 0 32 1.152 32 2.619V19.381C32 20.848 30.865 22 29.42 22H2.58Z" fill="#F2F2F2"/>
<path d="M29 1C30.1 1 31 1.9 31 3V19C31 20.1 30.1 21 29 21H3C1.9 21 1 20.1 1 19V3C1 1.9 1.9 1 3 1H29ZM29 0H3C1.4 0 0 1.3 0 3V19C0 20.7 1.3 22 3 22H29C30.7 22 32 20.7 32 19V3C32 1.3 30.7 0 29 0Z" fill="#D8D8D8"/>
<path d="M11.8 14.9L13.1 7.2H15.1L13.8 14.9H11.8ZM21.2 7.3C20.6 7.1 20 7 19.4 7C17.4 7 16 8 16 9.6C16.1 10.6 16.8 11.4 17.8 11.7C18.6 12.1 18.9 12.3 18.8 12.7C18.7 13.2 18.1 13.6 17.6 13.5C16.9 13.5 16.3 13.4 15.7 13.1L15.4 13L15.1 14.7C15.8 15 16.6 15.1 17.4 15.1C19.5 15.1 20.9 14.1 20.9 12.5C20.9 11.6 20.4 10.9 19.2 10.4C18.5 10 18.1 9.8 18.1 9.4C18.1 9.1 18.5 8.7 19.3 8.7C19.8 8.7 20.3 8.8 20.8 9H20.9L21.2 7.3ZM26.4 7.1H24.8C24.3 7 23.9 7.3 23.7 7.7L20.7 14.8H22.8C22.8 14.8 23.1 13.8 23.2 13.6H25.8C25.9 13.9 26 14.8 26 14.8H28L26.4 7.1ZM23.9 12.1C24.1 11.7 24.7 9.9 24.7 9.9C24.7 9.9 24.9 9.5 25 9.2L25.1 9.9C25.1 9.9 25.5 11.7 25.6 12.1H23.9ZM10.1 7.1L8.10001 12.4L7.90001 11.3C7.40001 9.9 6.40001 8.8 5.10001 8.1L6.90001 14.9H9.00001L12.2 7.2L10.1 7.1Z" fill="#00579D"/>
<path d="M6.3 7.09998H3V7.29998C5.2 7.69998 7.1 9.29998 7.9 11.3L7.2 7.79998C7.1 7.39998 6.7 7.09998 6.3 7.09998Z" fill="#F9A732"/>
</svg>
